<?xml version="1.0" ?><svg height="48" viewBox="0 0 48 48" width="48" xmlns="http://www.w3.org/2000/svg"><defs><style>.cls-1{fill:#35dc86;}.cls-2{fill:#f1f2f2;}</style></defs><title/><g data-name="25-Spotify" id="_25-Spotify"><g data-name="&lt;Group&gt;" id="_Group_"><circle class="cls-1" cx="24" cy="24" r="23"/><path class="cls-2" d="M37.57,26.14a1,1,0,0,1-.929-.631,14,14,0,0,0-24.836-2.325,1,1,0,0,1-1.69-1.068A16,16,0,0,1,38.5,24.771a1,1,0,0,1-.929,1.369Z"/><path class="cls-2" d="M14.781,30.04a.942.942,0,0,1-.182-.017,1,1,0,0,1-.8-1.164A10,10,0,0,1,32.92,26.992a1,1,0,0,1-1.859.737,8,8,0,0,0-15.3,1.492A1,1,0,0,1,14.781,30.04Z"/><path class="cls-2" d="M27.591,32.2a.938.938,0,0,1-.139-.01,1,1,0,0,1-.853-1.127,2.973,2.973,0,0,0-.18-1.5A3,3,0,0,0,20.63,30.68a1,1,0,0,1-2,0,5,5,0,1,1,9.951.658A1,1,0,0,1,27.591,32.2Z"/></g></g></svg>