<?xml version="1.0" ?><svg height="48" viewBox="0 0 48 48" width="48" xmlns="http://www.w3.org/2000/svg"><defs><style>.cls-1{fill:#2ebc70;}.cls-2{fill:#f1f2f2;}.cls-3{fill:#35dc86;}</style></defs><title/><g data-name="14-Android" id="_14-Android"><path class="cls-1" d="M14,7a1,1,0,0,1-.707-.293l-4-4a1,1,0,0,1,1.414-1.414l4,4A1,1,0,0,1,14,7Z"/><path class="cls-1" d="M34,7a1,1,0,0,1-.707-1.707l4-4a1,1,0,0,1,1.414,1.414l-4,4A1,1,0,0,1,34,7Z"/><g data-name="&lt;Group&gt;" id="_Group_"><circle class="cls-2" cx="28" cy="10" r="2"/><circle class="cls-2" cx="20" cy="10" r="2"/><path class="cls-3" d="M38,34v3a2.006,2.006,0,0,1-2,2H33v6a2.006,2.006,0,0,1-2,2H29a2.006,2.006,0,0,1-2-2V39H21v6a2.006,2.006,0,0,1-2,2H17a2.006,2.006,0,0,1-2-2V39H12a2.006,2.006,0,0,1-2-2V34H7a.979.979,0,0,1-1-1V23a1.959,1.959,0,0,1,2-2H40a1.959,1.959,0,0,1,2,2V33a.979.979,0,0,1-1,1Z"/><path class="cls-3" d="M38,16v2H10V16a14,14,0,0,1,28,0Zm-8-6a2,2,0,1,0-2,2A2.006,2.006,0,0,0,30,10Zm-8,0a2,2,0,1,0-2,2A2.006,2.006,0,0,0,22,10Z"/><path class="cls-1" d="M8,21a1.959,1.959,0,0,0-2,2V33a.979.979,0,0,0,1,1h3V21Z"/><path class="cls-1" d="M40,21H38V34h3a.979.979,0,0,0,1-1V23A1.959,1.959,0,0,0,40,21Z"/><path class="cls-1" d="M20,13a3,3,0,1,1,3-3A3,3,0,0,1,20,13Zm0-4a1,1,0,1,0,1,1A1,1,0,0,0,20,9Z"/><path class="cls-1" d="M28,13a3,3,0,1,1,3-3A3,3,0,0,1,28,13Zm0-4a1,1,0,1,0,1,1A1,1,0,0,0,28,9Z"/></g></g></svg>